<svg id="Layer_1" data-name="Layer 1" xmlns="http://www.w3.org/2000/svg" xmlns:xlink="http://www.w3.org/1999/xlink" viewBox="0 0 428.2 235.89"><defs><style>.cls-1{fill:none;}.cls-2{clip-path:url(#clip-path);}.cls-3{clip-path:url(#clip-path-2);}.cls-4{clip-path:url(#clip-path-3);}.cls-5{clip-path:url(#clip-path-4);}.cls-6,.cls-8{fill:#fff;}.cls-7{clip-path:url(#clip-path-6);}.cls-8{fill-rule:evenodd;}.cls-9{clip-path:url(#clip-path-8);}.cls-10{clip-path:url(#clip-path-10);}.cls-11{clip-path:url(#clip-path-12);}.cls-12{clip-path:url(#clip-path-14);}.cls-13{clip-path:url(#clip-path-16);}.cls-14{clip-path:url(#clip-path-18);}.cls-15{clip-path:url(#clip-path-20);}.cls-16{clip-path:url(#clip-path-22);}.cls-17{clip-path:url(#clip-path-24);}.cls-18{clip-path:url(#clip-path-26);}.cls-19{clip-path:url(#clip-path-28);}.cls-20{clip-path:url(#clip-path-30);}.cls-21{clip-path:url(#clip-path-32);}</style><clipPath id="clip-path"><rect class="cls-1" x="147.58" y="17.13" width="88.16" height="105.25"/></clipPath><clipPath id="clip-path-2"><rect class="cls-1" x="-2397.91" y="-3470.61" width="4932.86" height="3860.65"/></clipPath><clipPath id="clip-path-3"><rect class="cls-1" x="147.31" y="16.65" width="89.07" height="106.19"/></clipPath><clipPath id="clip-path-4"><path class="cls-1" d="M191.42,122.38c-24.92,0-43.85-18.32-43.85-52.39,0-32,19.09-52.86,44.16-52.86s44,18.16,44,52.22c0,32-19.24,53-44.31,53m0-84.52c-12.15,0-18.93,13-18.93,31.49,0,19,7.1,32.3,19.24,32.3S210.82,88.47,210.82,70c0-19-7.09-32.13-19.39-32.13"/></clipPath><clipPath id="clip-path-6"><path class="cls-1" d="M275.65,90.93h-5.17v28.45H246.65V20.08h29.16c25.55,0,39.35,14.3,39.35,35.44,0,21.3-13.8,35.45-39.51,35.45m-1.23-50.71H270v31h4.39c10.5,0,16-5.41,16-15.58,0-10-5.49-15.42-16-15.42"/></clipPath><clipPath id="clip-path-8"><polygon class="cls-1" points="325.44 119.42 325.44 20.07 387.1 20.07 387.1 40.26 349.25 40.26 349.25 59.65 379.68 59.65 379.68 79.68 349.25 79.68 349.25 99.23 387.1 99.23 387.1 119.42 325.44 119.42"/></clipPath><clipPath id="clip-path-10"><polygon class="cls-1" points="85.64 56.3 61.66 71.46 61.66 20.07 85.64 20.07 85.64 56.3"/></clipPath><clipPath id="clip-path-12"><polygon class="cls-1" points="113.05 56.3 137.03 71.46 137.03 20.07 113.05 20.07 113.05 56.3"/></clipPath><clipPath id="clip-path-14"><path class="cls-1" d="M108.77,119.42H137V78.74L99.35,54.33,61.67,78.74v40.68H89.93V101.64c0-5.84,3.59-10.57,9.41-10.57s9.43,4.73,9.43,10.57Z"/></clipPath><clipPath id="clip-path-16"><path class="cls-1" d="M110.73,137.11h-.21l-.9-.6-.48-.17-1.17-.41c-.14,0-.14-.13-.21-.12h-.41l-.68-.09-.56-.36-.21-.11-.82-.41-1.86-.66-1-.33-1.51-.49-.14-.06-1.35-.37-1.37-.23-.62-.22-.42-.24-.76-.34-1.31-.51h-.2l-1.66-.74a8.54,8.54,0,0,1-1.11-.38l-1.65-.55-1.93-.46-1.79-.6-.69-.21-.91-.66-.55-.43c-.35-.19-.7-.38-1-.58l-.56-.22-1.45-.69-.55-.23c-.14,0-.21-.12-.28-.11l-.48-.1-.63-.28-.69-.55h-.07l-.7-.61-.43-.56-.28-.25-.55-.42-.22-.25-.28-.31-.28-.44-.28-.24a2.46,2.46,0,0,0-.08-.46l-.28-.24-.09-.79a1.56,1.56,0,0,0-.14-.45V118.4l.06-.2.12-.87.33-.81.45-1.09.33-.55.27-.42c.31-.37.62-.75.94-1.12l.46-.56.94-1.19,1.15-.67.41-.36L82,109.39l.61-.31.14-.14,1.9-.86.48-.36,1.83-1,1-.47,1.7-1L91,104.5l.14-.07,2.59-1.24.27-.08.48-.17.27-.08.21-.15.89-.32.61-.36.55-.24,1.78-.45.82-.12c.41-.09.82-.32,1.23-.41a4.35,4.35,0,0,0,.89-.39l.89-.2,1.32-.29,1.23-.28.28-.08.89-.19,1.23-.35.89-.1H109l.49.1h.68l.7.15a7.84,7.84,0,0,1,1.58.29l.42.1a4.05,4.05,0,0,1,1.51,1.51.38.38,0,0,0,.07.26,3.24,3.24,0,0,1,.22.58v.46l-.12.8v.72l-.12.8v.66l-1,.53-.83-.08-.84-.61-.77-.87-.15-.78-.35-.44-.35-.37a2.81,2.81,0,0,1-.41,0l-.63-.22-1-.26c-.28,0-.62-.09-.9-.07h-1.3l-1,.33-1.17.27-1,.14-1.57.5c-.68.11-1.57.37-2.26.48l-.68.18c-.48.1-.89.33-1.3.42l-1.37.49a33.69,33.69,0,0,0-4,1.6l-.89.52c-.15.17-.31.33-.47.49l-.54.24-1.17.34-4.21,2.34-.74.58-2,1.8a15.2,15.2,0,0,0-1.94,2.64l-.39,1-.53.76c-.07.14-.13.28-.2.41s.08.33.08.46l.21.25.23,1c.07.14.15.29.22.44l.42.63a.71.71,0,0,0,.35.31c.17.16.33.32.49.49s0,.17.08.26c.14.25.42.49.56.75l.63.48.49.23.48.29.49.23,1,.72,1.11.52,1.18.84.42.17a1.8,1.8,0,0,0,.61.08l1,.59,1.17.51h.34l1,.39,1.24.44,3,1.31h.11l1.59.62.34.1.77.41,2.41.89.82.14.9.14,1,.2,1.17.58,1.17.44,2,.66.89.2.56.3.69.35.76.41,1.44.56,1.17.38,1.52.56a2.05,2.05,0,0,0,.55.1l.48.36.49.5.27.18a2.61,2.61,0,0,1,.28.17l.69.36a1.83,1.83,0,0,0,.62.28,4.76,4.76,0,0,1,1.17.59l.21.11.9.47.83,1.07c.07.13.21.38.28.38.12.23.24.46.35.7l.71,1.14.21.78a4.69,4.69,0,0,1,.52,2.6c0,.06.07.19.07.26V147a2.93,2.93,0,0,1-.2.8l-.66,1.1a7.27,7.27,0,0,1-2,2.24c-.22.23-.44.47-.67.7a30.88,30.88,0,0,1-2.56,2,8.73,8.73,0,0,0-.87.85l-.61.3h-.21l-4.32,2.6H111l-2.23,1.2-.74.71-.34.16-2,.92-1.82,1.11-1,.33-2.24.88-3,.87-3.38,1.35-2.5.9-.74.25-.48.1-.2.15-1.76.58-1.75.79-1,.33-1.82.72-1.22.15-1.82.73-4.47,1.24-6,2-3.37,1-2.78.34-3.47.25c-.74.12-1.48.38-2.16.49l-1.9.28c-2.3.37-4.88.7-7.18.94l-.27.15-.68.12-3,.3h-.27l-.88.2-3.18.18-1.56.32h-.61l-1.57-.21c-.34,0-.69-.08-1-.06l-1-.12-.55-.08-1,.08H33l-1,0H30.5l-.89-.06-3.08-.68a.46.46,0,0,1-.2-.05l-1.58-.27h-.27l-.83-.46a7,7,0,0,1-3-1.68l-.84-.59-.71-.93c-.19-.38-.38-.76-.58-1.14a.37.37,0,0,0-.07-.26l-.36-.5c-.17-.29-.34-.58-.5-.88l-.3-.77v-.39l-.15-.45v-.4l.06-.46.24-.81c0-.07.06-.21.06-.27l.06-.34c.08-.16.17-.32.26-.48a1.71,1.71,0,0,1,.51-.83l.4-.43.4-.37.72-.91a25.12,25.12,0,0,1,1.71-1.86l3.18-3,.94-.73.53-.57.53-.51,1.26-.95,1.28-.7.54-.31.47-.1,1,.06V155l-.12.41-.53.57-1.07.61c-.27.15-.27.35-.74.59l-.6.44-.13.08-.4.42-.6.51-.92.87-.67.58-.47.3a2.39,2.39,0,0,1-.13.21l-.26.22c-.2.24-.4.47-.59.71l-.66.71-1.29,1.22a11.31,11.31,0,0,0-1.47,2.95c-.09.25-.17.5-.25.75a3.59,3.59,0,0,0-.11.8v.53a6.23,6.23,0,0,0,.17.84l.15.45c.07.17.14.34.22.51a7.91,7.91,0,0,0,.43.69l.21.18.9.59,1.05.78L24,173h.68l.41.16,1.17.43.49.36h.07l2.19.35.89.19.62.22h.13a47.3,47.3,0,0,0,5.32.3c.07,0,.14.06.2,0h1.7a.65.65,0,0,0,.34,0l.61-.11h.28l.33-.09,1,0,.34.11.34-.09h.68l2.78-.22,1-.14h.27l2.51-.32.81-.2.88-.33h1.49l2-.35H54l1.15-.22.61-.25,1.76-.19.88-.2,2.37-.45,2.44-.51.68-.11.74-.19,1.56-.12,4.4-1.18,1.55-.51.48-.1.88-.32,1.08-.15,1.9-.53,1-.4,3.71-1.46,2.71-.52,1.35-.49,2.44-1h.4l2.64-.91.74-.44,1.22-.62.4-.16.75-.11,2.1-.74.61-.31,1.42-.56.47-.36,1.62-.51,1-.46,2.43-1,2.61-1.38.47-.17.81-.45,1.82-1.11.41-.16.88-.45,1.62-.77.68-.44.41-.16c.4-.29,1.07-.73,1.41-1l.54-.29.74-.58c.14-.16.27-.33.4-.49s.41-.47.61-.7l.81-.58.47-.29a5,5,0,0,0,1.46-2.8c0-.07.13-.41.13-.47l-.15-.85-.09-1a2.44,2.44,0,0,1-.1-.24.23.23,0,0,0-.07-.19l-.55-.69-1.26-1.83a22,22,0,0,0-2.43-1.75l-1.51-.89-.42-.23-1.58-.82-.28-.18-.55-.23"/></clipPath><clipPath id="clip-path-18"><path class="cls-1" d="M145.14,146.66l-.79.64-.92.46-.52.16-.46.36-.19.15c-.27.08-.6.3-.86.38l-.65.44-.33.15-1.24.68-.26.21-1,.73-.52.23a1.2,1.2,0,0,1-.4.22l-.91.59-.46.23-.46.16-1,.27-.91.52-.92.19h-.93l-.78.25-1.78-.21a2.79,2.79,0,0,1-1.66-1.14l-.34-.38.06-.53a5,5,0,0,1,.17-1.92v-.4c.14-.45.29-.9.44-1.35l.51-1.35c0-.07.13-.27.12-.4.18-.32.35-.64.52-1l.45-.56a.68.68,0,0,1,.07-.2l.58-.57.33-.55c.12-.27.38-.55.51-.82a3.49,3.49,0,0,0,.19-.48c.06-.16.18-.31.26-.47l.2-.21a8.6,8.6,0,0,1,.58-.9l.58-.9a3.72,3.72,0,0,0,.19-.34l.78-1,1-1.52.32-.81.85-1.11.32-.49.26-.54.33-.29.84-1.37.65-1,.71-.7a4.06,4.06,0,0,1,2.37-1.08,2.3,2.3,0,0,1,1.53.76v.46l-.13.94-.58.69-.79.91-.91.78-1,.92L139,135c-.42.44-.83.89-1.24,1.33l-.65,1-.46.69-.45.49a1.34,1.34,0,0,0-.06.4l-.66.44a2.93,2.93,0,0,1-.19.4l-1,1.19-.91,1.11-.46.69c-.15.23-.21.37-.32.55l-.71,1.3c-.11.12-.22.23-.32.35a1.37,1.37,0,0,0-.33.49c-.12.38-.25.76-.38,1.14a1,1,0,0,1-.13.34l-.57,1.36-.31,1.34v.29l-.12.8v.2h.92l.27-.08.39-.09H132c.46-.1.85-.32,1.37-.42l.59-.24.59-.17c.07-.07.2-.14.2-.15l1-.66.26-.21,1.57-.5,1-.46.53-.17,2.16-1.19.52-.3,1-.66.85-.58.52-.37.4-.09.39-.29.85-.58.46-.29.59-.43.26-.28,1.05-.6.33-.28,1.57-.89.59-.37.13-.07.46-.36h.13l.33-.35.46-.22.26-.29.72-.44.46-.29.26-.15.4-.22c.46-.29.85-.64,1.44-1l.39-.35h.73l.53.43a1.73,1.73,0,0,0,.07.59l-.72.83-.39.16-.39.35-1,.59-2,1.38c-.19.15-.39.29-.59.43l-.85.78-.46.16-.32.15c-1.18.87-2.36,1.8-3.47,2.53l-.4.42-.26.15-.72.31-.26.21Zm6.07-33a3.54,3.54,0,0,1,0,1.45,5.25,5.25,0,0,1-2.36,2.39l-.79.64-.26.22c-.33.28-.85.64-1.11.92l-1.18,1.13-1,.93-.46.36a2.73,2.73,0,0,1-1.26.27,5.19,5.19,0,0,0-.14-.85l.07-.26.9-2.24c.08-.16.17-.32.26-.48.3-.48.6-1,.91-1.44.17-.25.35-.5.52-.76l.26-.34.59-.7.46-.36.39-.35,1-1,.79-.45.53-.16a2,2,0,0,1,1.86,1Z"/></clipPath><clipPath id="clip-path-20"><path class="cls-1" d="M152.42,143.25a.27.27,0,0,0,.07-.14l.46-.83.47-.84.73-1.13,1.53-2.65.33-.56.2-.28.93-2,1.26-2.5a18,18,0,0,0,.59-2.06,5.64,5.64,0,0,0,.06-1.42,4,4,0,0,1,.12-1.29,2.27,2.27,0,0,1,1.82-1.32c1.76-.11,2.44.93,2,2.64a14,14,0,0,1-1.06,2.56l-1.26,2.84-.67,1-.33.76-.33.7c-.31.42-.62.85-.94,1.27a1.72,1.72,0,0,1-.13.48c-.05.16-.26.29-.4.43-.4.56-.93,1.47-1.26,2l-1.07,1.62c-.13.42-.29.83-.46,1.24l-.53.84.13-.07.87-.87,1.74-1.72.2-.28c0-.1.09-.19.13-.28l1.08-.81.26-.28,1-.81.2-.14,1.75-1.26.27-.08,1.07-.67c.2-.08.41-.3.61-.38a7.39,7.39,0,0,1,2.15-.73h1.76l1,.62.61.84.21,1.13v.61a2.25,2.25,0,0,1-.07.68l-.13.81-.06.48v.67c-.14.57-.27,1.14-.4,1.71,0,.2-.06.34-.06.55a1.8,1.8,0,0,0,.14.53c.05.18,0,.22.07.33a3.81,3.81,0,0,0,.27.66.57.57,0,0,0,.07.33l.27.46c.07.06,0,.07.07.06l.61.23a10.78,10.78,0,0,0,2.83-.37l1.21-.61.47-.09c.27-.08.67-.31.88-.39l.54-.1,1-.46,2-.93h.21l1.14-.47,2.29-1.21.87-.66.34-.08,1.48-.83.47-.36.54-.5.61-.38,1.89-1,2.29-1.47.4-.3.88-.58L193,136l.88-.65h.74l.41.31c.07.11.14.22.2.33l-.13.75-.67.5-1.22.88a14.33,14.33,0,0,1-2.15,1.47l-1,.8-.68.3-1,.73-.81.46c-.53.36-1.27.74-2.22,1.27l-1.07.66-3,1.66h-.14c-.27.22-.67.45-.87.66l-.94.6-1,.32a5.88,5.88,0,0,0-.87.52l-.61.31-.74.17-.8.19-.48.09-.26.15-.27.08-.21.08a2,2,0,0,1-.8.19l-.61.17-.67.24-.74.11h-.81l-.41.16h-.67a4.92,4.92,0,0,1-2-.42h0l-.27-.12a2.73,2.73,0,0,1-1.43-1.8,6.11,6.11,0,0,1-.08-1.21v-.81c.08-.28.17-.55.26-.83l.39-1.44.66-2.4c0-.13.07-.4.06-.54.07-.68-.07-1.21-.48-1.32a3.2,3.2,0,0,0-.74.18.53.53,0,0,1-.27.22l-.47.3-.67.37-.61.31-.94.73-.33.16-.67.71-.67.65-.81.59c-.26.28-.8.92-1.07,1.14l-.6.44-.54.37-.2.22-.93.93-.14.08c-.18.12-.36.24-.53.37a4.09,4.09,0,0,0-.34.29l-.2.21-.87,1.07-.8.65-1.2,1.36-2,2.21-.4.43-1.27,1-.61.1c-.81-.15-1.08-.74-1.29-1.33a3.32,3.32,0,0,1,.85-2.55l.46-.77,1.4-2c.13-.25.26-.51.4-.76l.6-.85.13-.28,1-1.61.27-.29"/></clipPath><clipPath id="clip-path-22"><path class="cls-1" d="M147.78,210c0-.33.13-.87.12-1.13l.27-.87.45-1.55.6-1.55.33-.75.06-.07a1.2,1.2,0,0,1,.2-.41c.53-1.28,1.33-3,2-4.28a.25.25,0,0,0,.07-.2l.52-1.35c.27-.45.54-.91.8-1.37l.2-.47.67-.83.94-1.38c.73-1.12,1.47-2.24,2.21-3.36.89-1.14,1.79-2.27,2.68-3.4l.87-1.3.54-.89.74-.9.67-.84c.25-.27.49-.55.74-.83l1.35-1.53.27-.21c.06-.14.26-.28.33-.42l.47-.42.81-.84,1.08-1.25,1.82-1.82.27-.28.75-.9,1.55-1.68.88-.9.74-.71.88-.77.41-.35.47-.56,1.15-.92,1.83-1.69.68-.7c1.56-1.4,3-2.8,4.41-3.94l.61-.69.74-.37.46-.4c1.09-.78,2.17-1.7,3.26-2.48l.61-.5.75-.5,1-1,1.84-1.09c1.57-1.14,3.4-2.49,5-3.63l.61-.5,4-2.65.48-.35.4-.35,1-.52.07-.07.75-.63.68-.43.41-.22.68-.23.69-.3,1.36-1.92.48-.88c.07-.13.14-.27.2-.41l1.44-2.44.75-1.56.69-1.42.2-.4.34-.75c.14-.46.28-.93.41-1.4l-.61.16-1.37.6-.21.21-.54.29-.89.57-1.58.94a3.27,3.27,0,0,1-.48.35l-2.33,1.51-.21.07-.34.15-.48.22-1.43,1-.89.64L200,142l-.88.5-.55.36h-.14L197,144l-1.23.79-.41.29-.2.21-1,.58-.41.15-1.43.47h-.14a8.36,8.36,0,0,1-3.55.79,2.27,2.27,0,0,1-1.57-.71c-.14-.25-.28-.51-.41-.77v-.52a2.57,2.57,0,0,1,.14-.61c.2-.51.4-1,.61-1.55l.13-.07.41-.55a7.28,7.28,0,0,0,1.09-1.38l.61-.56,1.23-1.19.54-.62.69-.5.61-.63.55-.42c.22-.28.45-.55.68-.83l.89-.64.34-.28.41-.35,1-.65.35-.15.88-.64,1-.71.41-.42,1.64-1.07H201l.14-.14,1-.64.07-.07,1.57-1,.55-.36,2.47-1.51a14.51,14.51,0,0,1,5.07-1.51c.07,0,.13.06.2.06a3.25,3.25,0,0,1,1.17.4l.48.57a3.45,3.45,0,0,1,.2.32,2.81,2.81,0,0,1,.35,1.36,4.22,4.22,0,0,1-.14,1.46l-.14.47,1-.32,1.1-.18h.54l.62.1.62.56v.66a9.79,9.79,0,0,1-.14,1.07c-.21.31-.41.63-.62,1l-.2.34c-.1.2-.19.41-.28.61l-.75,1.16-.89,1.36c-.28.67-.82,1.69-1.1,2.3-.13.38-.27.76-.41,1.14l-.48,1.08-.34.48-.27.67,2.46-1.24.82-.57.41-.16,1.37-.39,2-1a10.37,10.37,0,0,1,2.26-1l.41-.29.62-.29,2-.43a1.3,1.3,0,0,0,.34-.08l.83-.31.68-.16.62-.29.89-.31.55-.16,1.57-.34,2-.36.68.56a3,3,0,0,0,.07.79l-.62.62-.41.09h-.41c-.48.09-1,.31-1.37.39l-.48.16-.76.1-2.25.64-.69.36-.82.17-.62.17c-.48.09-1,.31-1.36.39l-.28.08L221,141l-1.65.67-1.09.59-1.16.38a28.76,28.76,0,0,0-3.9,2.11l-.89.51c-.27.17-.54.34-.82.5l-.34.09-1.5.87c-.23.32-.46.63-.68,1l-.69,1.09-.68.9-.13.33-1.23,1.58-3.88,5.55c-.48.62-1,1.5-1.43,2.12l-1.56,2-.55.82a4.86,4.86,0,0,0-.81,1l-.68,1-1.43,2c-1,1.24-2,2.55-3,3.86l-1.69,2.26-.21.28-.88,1.43-3.58,4.62-1.62,2.2c-1.46,1.86-2.93,3.72-4.39,5.59-.94,1.3-1.95,2.61-3,3.86l-1.35,1.73a2,2,0,0,1-.07.26l-3.16,4a18.85,18.85,0,0,1-2.81,4L169,201.65a21.43,21.43,0,0,1-1.75,1.94,15.49,15.49,0,0,0-1.61,2l-1.2,1.72c-.14.2-.27.41-.4.61l-.81,1.17a8.91,8.91,0,0,1-1.2,1.33,2.83,2.83,0,0,0-1.07,1.25l-.47.36-1.41,1.6-1.74,1.88-.6.5a12.26,12.26,0,0,1-3.83,2.34l-1.42.42-2-.54-.61-.49a4.44,4.44,0,0,1-1.31-2.16,1.94,1.94,0,0,0-.07-.33,7.91,7.91,0,0,1-.09-2.17c0-.39.12-1.06.12-1.46A10.44,10.44,0,0,1,147.78,210Zm51.82-53,1-1.38c.07-.2.2-.27.27-.47.48-.71.95-1.42,1.43-2.12.14-.23.27-.46.41-.68l2.25-2.89-1.37.86-.88.64-1.51.94-3,2.07-1,.71-2.12,1.44-1,.64-3.33,2.55-.68.57c-3,2.47-6,5-8.82,7.61l-.14.07-.61.83-.81.51c-2.24,2.1-4.61,4.28-6.7,6.51l-.61.83-.61.43-.74.77-.2.34-.94,1.24-1.35,1.4-.34.28-.94,1.44c-.72.86-1.44,1.71-2.15,2.57l-2.43,2.65-1.27,1.79a34.36,34.36,0,0,0-2.35,2.91c-.4.59-.8,1.19-1.21,1.78-.33.42-.53.76-.87,1.24a1.72,1.72,0,0,1-.26.48c-.14.27-.87,1.64-1.27,2.52-.28.59-.57,1.18-.86,1.77-1.4,2.85-2.79,5.77-3.84,8.48,0,.26-.13.66-.13.93l-.12.86-.6,1.76a11.59,11.59,0,0,0,0,3c.41.18,2.42-1.2,2.75-1.48l1.42-.62.73-.77,1.68-1.09a35.15,35.15,0,0,0,5.23-5.19c.27-.35,1.08-1.19,2-2.1a62.88,62.88,0,0,0,7.65-9.42L174,191c.34-.42.81-.91,1.14-1.39l2.76-3.65a28.16,28.16,0,0,1,3-3.8c.88-1.1,2-2.41,2.77-3.58l.27-.41c.4-.51.81-1,1.22-1.52l2.3-2.7.81-1.16a2.83,2.83,0,0,1,.2-.28l1.08-1.51.88-1.37.41-.48v-.07l.61-.56,1.29-1.91.2-.21c.75-1.1,1.49-2.19,2.24-3.23l.27-.4L196,162l.27-.54.75-.83.54-.63Zm9.12-23.63.2-.14-.07-.33a1.68,1.68,0,0,1,.07-.59c.07-.19.19-.41.28-.61l.2-.34.34-.68.69-.83.34-.54.34-.48a10.79,10.79,0,0,0-2.53.92l-.48.29-.55.36-.82.57-.55.42-.61.3-.89.31c-.19.09-.37.19-.55.29A3.76,3.76,0,0,0,203,133c-1.1.71-2.26,1.43-3.42,2.29l-.69.63-.68.43-.48.42-1.23.85-1.43,1.14-1.36,1.15-1.3,1.32c-.13.19-.27.37-.41.55l-.41.49-1.15,1.64c-.14.27-.27.34-.41.61a1.59,1.59,0,0,0-.14.47l-.2.28a.29.29,0,0,0,.14-.08,3.54,3.54,0,0,0,1-.32l.14-.07.88-.44,1.1-.72.47-.23.48-.22,1-.64,1-.72.48-.29.54-.29,1.1-.72.68-.56.82-.57,1.57-1.07,2-1.43,1.57-1.27.75-.5.41-.28.82-.51,1.37-.66.35-.28h.2Z"/></clipPath><clipPath id="clip-path-24"><path class="cls-1" d="M250.28,136.2c.19-.26.38-.52.56-.79a7.52,7.52,0,0,1,.56-.65h.07l.7-.79.21-.29h-.07l-.83.25-1.95.85-.7.17-2.15,1.35-.56.37-.49.23-.48.31c-.54.27-1.07.55-1.6.83l-1.81,1.13-.49.23L240,140l-.07.07-1,.6-.28.08c-.41.23-.83.6-1.25.83l-.41.29-.7.52-.41.16a1.86,1.86,0,0,1-.56.24,10.51,10.51,0,0,0-1.46,1l-1.32.76h-.62l-.83.39-.49-.05c-.13.15-.27.08-.62.24a1.71,1.71,0,0,0-.35.36l-1.38.56-.49.09-1.18.55-.41.09-.49-.05c-1.38.21-2.49,0-2.9-1.1a5.14,5.14,0,0,1,.49-3.42c.11-.33.23-.66.35-1l.41-.51a.27.27,0,0,0,.07-.14c.19-.28.37-.57.56-.86l.48-.72.7-.86.83-.88.28-.36.63-.51.76-.74,3.2-3,1-.81.49-.51.84-.73.13-.08.56-.37,1.39-1.32,1.19-1,.49-.44,1-.6.07-.07.63-.31.2-.08a7.7,7.7,0,0,1,1.12-.54l2.51-1.37.62-.3.42-.16c.42-.09.77-.32,1.18-.4l.28-.23.7-.1.42-.16.48-.16h1l1.53.14a.7.7,0,0,0,.35.12l.76.59a2.32,2.32,0,0,0,.07.69l-.15.63a2.93,2.93,0,0,1-2.65,1.79c-.14,0-.34.08-.48.09l-2.71.13-.49.09-.42.16-.9.32-1.18.4-1.53.7-1.81,1.06-.23.11-.91.67L234.38,133l-.21.22-.62.72-.63.66-.48.3-.56.51-.14.15-.7.59v.13l-.69.87-.84.8v.07l-.41.51-.28.36-.14.22a.86.86,0,0,1-.07.21l-.42.43c-.09.13-.18.25-.28.37l-.76,1.07-.42.93-.21.42-.34.44-.21.28-.07.15v.48c.48-.16.76-.45,1.25-.62l.62-.17,1-.39.48-.1,2.43-1.23.35-.22.63-.38.9-.32.41-.23a7.63,7.63,0,0,0,1.74-.92l.49-.37.62-.38.21-.21.42-.09.83-.46.56-.3.48-.31,1.88-1,.49-.38,2.08-1.07.28-.08,1.18-.61.84-.66,1.11-.61.35-.29.56-.38.34-.29.84-.59,1-.67,2.15-.59h1l.77.11.69.38.07.07a2.25,2.25,0,0,1,1.17,1V132l-.07.21-.28.43-.15.7-.63.44-.27.3-.63.92-.56.52-1.47,1.73-.14.21c-.23.34-.47.67-.7,1l-.21.43-.14.35c-.07.21-.21.22-.21.29.21,0,.35-.09.62-.1l.7-.1h.28l.9-.25.76-.18.42-.15.9-.25,2.43-.81.35-.15.63-.17.83-.31.63-.31.28-.08.28-.22,2.43-.73.62-.24.21-.22,3.41-1.12L268,134l1.39-.48a1.69,1.69,0,0,1,.55,0,2.76,2.76,0,0,0,.7.11v1.18l-.7.66h-.77l-1,.32-.84.46h-.41l-1,.32-.41.16-1.67.84-1.19.6-1.39.48-1.53.63-.41.15-.28.09-.56.44-.62.23-.42.16-.56.37-.28.15-1.73.78-.56.3-1.88.78-.76.31a4,4,0,0,1-.49.3l-1,.33h-1.52l-.35-.12-.48-.12-.62-.66V142a1.7,1.7,0,0,1,0-1c.11-.26.23-.52.35-.78v-.13l.63-.87.21-.35.56-.72,1.39-2"/></clipPath><clipPath id="clip-path-26"><path class="cls-1" d="M267.29,135.85a5.91,5.91,0,0,0,.4-.89c.11-.23.22-.46.34-.69V134l.74-1.3c0-.14.07-.41.07-.54l.33-.62.27-1,.34-.55.4-.89c0-.27.14-.81.15-1.08s0-.27.07-.41l.27-.68s.13-.27.26-.48a.25.25,0,0,0,.07-.2,3.38,3.38,0,0,1,.67-1l.14-.21.66-.7a1.36,1.36,0,0,1,1.13-.11c1.32.14,1.7,1.73,1.43,2.62-.12.36-.23.72-.34,1.08s-.5,1-.74,1.51c0,.13-.07.27-.07.41l-.67.9-.07.13.6-.42.93-.85.13-.07a2.23,2.23,0,0,1,.4-.35c.2-.08.73-.44.87-.51l.79-.37.54-.29.26-.21,1.26-.59,2.26-1.31.27-.28.4-.08a19.45,19.45,0,0,0,2.39-1.37l2.26-1,3.19-1.34.47-.36.66-.16,3.13-1.26a10,10,0,0,1,2.65-.58l.2-.07h1.65l.47.18c.13,0,.46,0,.52,0l.33.26.66.44c.13.22.26.44.38.66l.2.26.39.45.06.67a.68.68,0,0,1-.07.2,6,6,0,0,1-.31,3A7.26,7.26,0,0,1,300,128.1l-.81,1.71-.68.76-1.33,1.36-.47.35-.6.56-2,2L291.24,137l-1.93,1-1.32.52a.23.23,0,0,0-.07.07l-.33.21-1.06.52-.93.57-.6.16-2.72,1.25-.79.44-.46.09-.53.22-.86.1c.2-.07-1.06.32-1.46.47l-.79.23-.33.08h-.13l-.66.23-.53.22-.93.11-.39.08-1.45.07-.27-.06-.33-.12a12.74,12.74,0,0,1-4.14-.76,1.23,1.23,0,0,1-.53-.17h-.06l-1-.29-.6.76-.2.35v.06l-1.67,2.43a2.21,2.21,0,0,1-.13.47l-.34.69-.33.41c-.2.35-.6.7-.8,1l-.93,1.31c-.53.88-1.07,1.75-1.6,2.62a2.14,2.14,0,0,1-.13.48l-.6.83-.47,1c-.18.19-.35.38-.53.56l-.27.42c-.13.27-.39.55-.53.83l-.46,1c-.12.11-.23.23-.34.35a2.85,2.85,0,0,0-.26.41v.07c-.18.28-.36.55-.53.83-.4.69-.93,1.38-1.33,2.07l-.4.63c-.16.25-.31.5-.46.75l-.2.42c-.34.5-.67,1-1,1.52l-.2.28-.93,1.58-.66,1-.46.63-.93,1.32c-.09.14-.18.27-.26.41l-.6.9v.07l-.66,1-.6.83-1,1.53v.06l-.26.35-.33.69-1.06,1.32c-.68,1.07-1.36,2.13-2,3.19-.26.3-.52.61-.79.91-.39.56-.85,1.45-1.32,2.08l-.39.69c-1,1.59-1.85,3-2.9,5-.7,1.44-1.41,2.88-2.11,4.33l-.33,1.29-.93,2.73c-.08.23-.17.45-.26.68s-.13.46-.2.68v.14l-.06.4-.27.76-.52,1.23-.72.84-.46.16-.33.08-.59-.24-.52-.57c-.08-.27-.17-.53-.26-.79l-.06-.34v-.4c0-.29.05-.58.07-.88s.09-.89.13-1.34a.26.26,0,0,1,.07-.21,5.6,5.6,0,0,1,.07-1.08c.07-.36.08-.54.13-.81a1.47,1.47,0,0,1,.2-.48,3,3,0,0,0,.13-.81l.46-1.36v-.27l.33-.62c.13-.54.2-1.15.4-1.77l1.51-3.9c.47-1.12.93-2.23,1.39-3.35.07-.19.13-.37.2-.55.17-.41.35-.82.53-1.23l1-2.47c.2-.26.4-.51.59-.77l.86-1.72.27-1.15,1.06-1.53.66-1.71c.07-.18.13-.36.2-.55l.72-1.1.8-1.12.46-.69.4-.76.66-1,1.65-2.69.86-1.25.6-1a12.93,12.93,0,0,1,1.06-1.59.8.8,0,0,1,.07-.34l.59-.9.53-.5.33-.62a.52.52,0,0,0,.07-.27l.47-.82c.06-.14.13-.28.2-.42l.59-.56.46-.56c.47-.62.93-1.25,1.4-1.88l1.19-1.46.2-.14.27-.49.79-.77,1.06-1.39.2-.08,1.2-1.53.73-.7a.86.86,0,0,1,.13-.14,1.91,1.91,0,0,1,.33-.42l.53-.76.47-.63.6-.76.59-.57.6-.63.4-.28.27-.35.33-.22.53-.63.46-.28c.14-.14.27-.29.4-.43.34-.39.67-.79,1-1.18l.53-.43,1-1.11.66-.57.47-.49.6-.36m-6.08,10.4.26-.42.33-.41.4-.49.07-.14.47-1c-.22.23-.44.47-.67.7l-.33.55-1,1-.67.57-.33.35c-.29.33-.58.65-.86,1l-.87,1.05-.73.9c-.13.16-.26.33-.4.49a3.52,3.52,0,0,1-.26.68l-.6.37-.2.27-1,1.46c-.27.55-.73,1.11-1.13,1.79l-.86.72a.54.54,0,0,0-.07.13.86.86,0,0,1-.07.21l-.66.7a5.9,5.9,0,0,1-.4.69c-.17.19-.35.37-.53.56l-.39.62a5.13,5.13,0,0,0-.73,1l-.33.41a4.28,4.28,0,0,1-.67.91l-.33.55a2.14,2.14,0,0,1-.13.48l-.4.42-.26.34-.6,1.24-.73.77a14.84,14.84,0,0,1-.79,1.32c-.07.18-.14.36-.2.54l-.33.42-.4,1-.93,1.31-1,1.73-.66,1-.4.76c-.06.18-.13.36-.2.54l-.53,1-.39.56c-.13.4-.53,1-.53,1.1a.84.84,0,0,0-.13.27l-.47,1.23-.86,1.79c-.13.27-.46.76-.59,1.1l-.33.42-2,4.59c-.18.52-.35,1-.53,1.57a1.62,1.62,0,0,1-.13.41l3-5.05.66-1c.59-1,1.25-1.94,1.91-3l2.64-4.22.59-.76,1.2-1.87c.63-1,1.27-1.94,1.91-2.91,0-.14.14-.34.14-.41L248,167v-.33l.73-.71a2.55,2.55,0,0,1,.13-.61c.33-.39.66-.79,1-1.18l-.07.07c.71-1.11,1.41-2.22,2.12-3.32l.8-1.11c.17-.37.35-.74.53-1.1l.86-.91.66-1.11.53-.63c.27-.43.54-.87.8-1.31l.27-.41,1.8-3.17.47-1,.19-.21.8-1.24.14-.21.46-.83.34-.61.6-.7m26.4-9.86,1.19-.72,1.73-1.28.6-.29.27-.28h.2l.6-.42.8-.77-.07.07.33-.28.27-.28.2-.35.88-1,1.27-1.19c.42-.82.85-1.64,1.28-2.46l.27-.49.14-.13c.07-.23.14-.46.2-.68s.28-.68.41-1c0-.07-.06-.14-.06-.2l.07-.34c.05-.16.09-.32.14-.48s-.08-.35-.13-.53l-.12-.19c-.05-.09-.09-.18-.13-.27l-.33-.25-.26-.19-.27-.13-.79-.3h-.13l-.4.08-.2.14-.26.08h-.8l-.26.08-2.13.68-.46.09a19.21,19.21,0,0,1-1.79.81c-.22.13-.44.25-.67.36l-.93.31-.73.36-.66.23c-.8.37-1.8.88-2.73,1.39l-1.86,1.42-.47.15-.33.28-1.66,1-.94.58-.66.29c-.46.36-1.06.65-1.53,1l-.13.14-.47.35-.4.22-.73.5-1.19,1.06-1.6,1.21-.33.28-1.07,1-.46.36-.14.14c-.13.21-.46.49-.6.7l-.13.14-.33.55-.41.82v.06c-.13.18-.26.37-.4.55l-.33.55c-.07.16-.14.32-.2.48s.19.06.26.06l.79.3h.46l.59.17.86.17a1.56,1.56,0,0,0,.52.11c.73,0,1.45.07,2.11,0a18.54,18.54,0,0,0,2.58-.31c.33-.09.73-.3,1.06-.38l.66-.1H278a31.05,31.05,0,0,0,4.3-1.45l.67-.43.92-.24,1.46-.8.87-.57.46-.16.47-.28.4-.22"/></clipPath><clipPath id="clip-path-28"><path class="cls-1" d="M323.66,132.47a8,8,0,0,1-.63,1.78,9.12,9.12,0,0,1-.35,1l-.69,1-.74.57-.62.63-.61.7-.68.57a27.43,27.43,0,0,1-4.21,3.14l-.13.07-.88.65-.41.15-.2.14-.61.43-.48.49-.4.09a2.33,2.33,0,0,1-.27.35l-.61.29-.2.08-.74.23-.47.15-.27.08c-.07.07-.2.21-.27.21l-.2.08a20.33,20.33,0,0,1-2.63,1l-.2.21-.4.08-.94.17h-1.74a8.83,8.83,0,0,1-1.54-.07,5.38,5.38,0,0,1-1.47-.42l-.13-.06a3.61,3.61,0,0,1-1.66-1.5c-.06-.18-.12-.36-.19-.53l-.06-.61c.1-.46.19-.92.29-1.37l.48-.84.61-.9c.82-.85,1.63-1.7,2.45-2.54l.81-.78.68-.57.27-.28c.5-.38,1-.76,1.49-1.15a.23.23,0,0,0,.07-.07,2.3,2.3,0,0,1,.41-.35l.75-.64.33-.29c.55-.42,1.09-.85,1.63-1.28l.48-.49h.2l.68-.5.74-.5.89-.58,1.35-1,.34-.22.34-.21h-1c-.13,0-.27.07-.47.08a10.55,10.55,0,0,1-1.68.2l-1.68.13-.8-.17-.53-.32-.53-.66.08-.82.69-1.18.87-.37.81-.17.88-.1.46.19,1.14.16a17.25,17.25,0,0,1,2.69.1h2l1.28-.25h.27l.94-.16a5.11,5.11,0,0,0,.48-.22l.81-.58.54-.29h.07l.54-.29.61-.09.54-.09a5.69,5.69,0,0,1,1.54-.12h.41l.33.12a2.56,2.56,0,0,1,.8.38l1.62-.33.81-.23,1-.1,1.08-.38.54-.09.67-.09h1.34l.54-.09h.88a2.31,2.31,0,0,0,.74-.09h.67c.2,0,.4-.08.61-.09l.4-.15.27.06h.4l.44,0h1.21l.67-.09.47.12h1.07a14.78,14.78,0,0,1,2.07.48l.14.06h.27l.59.32h-.06c.6.11.6.25.73.38a.43.43,0,0,0,.27.06l.85.86.26.53a4.57,4.57,0,0,0,.05.82l-.15.68c-.11.23-.23.46-.35.69l-.62,1a3.4,3.4,0,0,1-.62.83l-.41.42-.81.23h-.41a4.52,4.52,0,0,0-.05-.82,1.51,1.51,0,0,1,.08-.34c0-.12.09-.32.14-.48l.28-.55.49-.83c.09-.3.19-.59.28-.89v-.2l-.53-.26-.47-.32-1-.24a19.33,19.33,0,0,0-4.3-.2h-1l-.81.09a3.8,3.8,0,0,0-.88.17,2.69,2.69,0,0,1-.8.09c-3,.31-5.05.65-7.14,1.06l-.54.16-.27.21h-1.28l-1.35.25-1.88.33-.47.23.33.25.13.07.53.32c.35.37.71.74,1.06,1.12.08.2.17.4.26.6l.32.8-.09,1.36a.33.33,0,0,1,0,.14m-4.19,2.25a9.75,9.75,0,0,0,1.1-1.8v-.41l.28-.76c0-.2.07-.34.08-.61s-.23-.44-.33-.67l-.06-.06-.47-.33-.53-.32-.4-.12-.4-.12L318,129a.3.3,0,0,1-.2-.06l-.48.36a45.15,45.15,0,0,1-3.93,2.52l-1.93,1.25-.82.58-.34.21c-.47.29-.94.72-1.42,1l-.41.35-.88.64-.74.71-.75.51-.47.42-.89.71a6.91,6.91,0,0,0-.61.71l-.61.83-.55.64a10.07,10.07,0,0,0-.89,1.52.31.31,0,0,0-.07.21,1,1,0,0,1-.14.35,2.63,2.63,0,0,0-.07.54,1.72,1.72,0,0,0-.07.21v.41l.4.39.33.19h.14c2.07.06,2.54-.16,4.7-1,1.07-.38,2.08-.83,3-1.2l.14-.07,1.21-.66,1.29-1.06h.47l1.9-1.36.34-.29c.54-.42,1.08-1,1.63-1.48l.2-.28c.23-.21.46-.42.68-.64l.62-.63a.68.68,0,0,1,.07-.2l.48-.5.2-.14"/></clipPath><clipPath id="clip-path-30"><path class="cls-1" d="M341.25,132l.27-.2,1.16-.93.61-.6.75-.54c.38-.25.76-.5,1.15-.74l1.29-1,1.49-1.07,2.11-1.48.27-.2.74-.41.48-.46.34-.08a4.93,4.93,0,0,0,.61-.4l1.35-.81.62-.6.41-.27.94-.35.75-.66.88-.54,1.83-.76h.06s.61-.28.82-.41.74-.34,1.89-1l1.29-.48,2-.89.74-.28.54-.21.81-.09a11,11,0,0,1,3.36-.53,2.05,2.05,0,0,0,.6.11,4.27,4.27,0,0,1,1.19.68,2.21,2.21,0,0,1,.51.63c.09.23.17.46.25.7-.05.54-.11,1.08-.17,1.61l-.29.78-.35.53-.55.52-.54.34-.54.14-.4.08H370l-.65-.63-.06-.38a.7.7,0,0,0,0-.32v-.33l-.12-.44v-.45a1.91,1.91,0,0,0-.13-.45h-.55l-.95.42-.47.07h-.33l-.75.34-.6.08c-.81.15-1.69.43-2.42.58-.88.41-1.9.89-2.78,1.23a1.18,1.18,0,0,1-.4.21l-.35.33-2.7,1.43-.95.6-.48.4-1.29.68-.27.14-.61.53-1,.68-.41.39-2,1.28-1.75,1.39-1.64,1.53-.48.33-.81.86-1,.87-.56.41a3.41,3.41,0,0,0-.47.46l-.61.54-.62.66-.3.34-.34.27-.68.6-.21.33-.4.33-.28.33-.67.6-1.58,1.92-1,1.45c-.2.24-.41.48-.61.73l-.88.73a2.7,2.7,0,0,1-1,.23,1.11,1.11,0,0,1-1.18-.61,2.76,2.76,0,0,1,0-2.25c.19-.4.37-.79.56-1.18l.82-1.31.62-.73.48-.6.82-1.05.48-.66.41-.59c.09-.2.19-.4.28-.59a9.92,9.92,0,0,1,.68-.86l.15-.45.82-.93.2-.2c.27-.33.55-.92.83-1.25l.41-.59.76-1c.2-.35.41-.7.62-1l.21-.33c.09-.2.18-.39.28-.59l.27-.33v-.06c.19-.42.38-.83.56-1.24l.49-.92.76-1.25c.24-.54.47-1.08.7-1.63a1,1,0,0,1,.08-.26l.27-.39.89-.86,1.09-.74.4-.15.47.06c.93.35,1.25.8,1.38,1.24v.39a4.28,4.28,0,0,1-1.26,2.55l-1.44,1.52-.61.66-.14.2c-.09.15-.19.3-.28.46.07-.07-.41.59-.76,1.05l-1,1.32-.28.52-.55.85-.55.6v.06l-.55.86-.69,1"/></clipPath><clipPath id="clip-path-32"><path class="cls-1" d="M370.85,134.32c-.07,0-.07,0-.07.08l-.72,1.47c0,.51-.1,1.53-.11,2a1.85,1.85,0,0,0,.11,1.16c.13.21.47.28,1.49.46l.94.27h.89l1-.17,4.8-1.3,1.17-.54,2.48-.94.62-.38.41-.08,4.07-1.93c.26-.12.51-.25.76-.38l.76-.16,2.34-.94.2-.07c1.25-.62,2.29-1.23,3.25-1.68l2.77-1.45,1-.54.27-.07.7-.38,1-.39,2.08-1.07.42-.37c1.06-.71,2.13-1.41,3.2-2.11.46-.28.92-.56,1.39-.83a3.78,3.78,0,0,1,.83-.53,1.77,1.77,0,0,1,1-.38c.41,0,1,0,1.14.48s-.3,1.24-.79,1.54l-.56.31-.41.3-1.47,1-.9.68-.14.08-1.46.9-.56.38-.48.3-.35.3-.42.15h-.13l-1.8,1c-.14.08-.42.3-.42.3l-.69.38a6.84,6.84,0,0,0-.9.53l-2.64,1.23-.83.46a17.83,17.83,0,0,1-1.66.91l-.21.23L391,136.21l-1.72.77-.62.16-.62.31c-.83.38-1.79.77-2.69,1.16-.34.15-.69.45-1,.6l-2.21,1.23-1.37.33-1.1.39-1.17.47-1.17.25L377,142a7.21,7.21,0,0,1-1.37.41l-1.17.39-.41.09-1.3.32-1.29.19c-.57-.08-1.13-.17-1.7-.24l-1.68-.83c-.31-.48-.62-1-.92-1.43-.11-.31-.22-.62-.32-.93l-.18-1a8,8,0,0,0-.05-1.09c0-.19.06-.38.08-.58s0-.44,0-.65l.52-1.84c.16-.32.33-.64.5-1a9.48,9.48,0,0,0,.5-1.1l.78-1.33c.3-.38.61-.75.91-1.12l1.26-1.57,1-.75.83-.82.63-.6,1-1,.14-.15c.07-.14.28-.3.35-.44l.56-.53.56-.38,1-.61.14-.07.28-.23c1.46-1.13,3-2.41,4.66-3.47l.84-.68,1.8-1,.62-.38.35-.08.89-.17c1.1-.39,1.59-.7,2.07-.85l1.51-.41H391c.2,0,.41-.09.62-.09h1a5.56,5.56,0,0,0,1,0,3.86,3.86,0,0,1,.74.35l.74.41A2.22,2.22,0,0,1,396,118a5.49,5.49,0,0,0,.11.8l.06.29-.09.8-.22.73-.3,1-.92,1.12-.84.67-.7.67-.83.61-2.15,1.43-.42.38-.42.08a53.57,53.57,0,0,1-4.78,3.11l-.35.22-2,1.07c-.3.23-.6.46-.91.68l-1.86.93-1.24.54-2.05.42-1.17.1h-.61l-.87-.41-.06-.73,0-.57a5.92,5.92,0,0,1,2.84-2.19c.07,0,.21-.15.28-.15.68-.09,1.58-.34,2.26-.43l.76-.24.68-.23.69-.31,1.52-.55,1.52-.91,1.45-.7c.7-.38,1.67-1.06,2.36-1.44l.48-.3.7-.6,2.86-2.4a3.6,3.6,0,0,0,.43-.52.46.46,0,0,0,.07-.3l.15-.36.37-1c-.07-.07-.14-.07-.13-.14l-.54-.35c-.14-.07-.2-.14-.27-.14h-.75l-.48.08-.42.09a17.85,17.85,0,0,0-4.14,1.78l-.48.23-.83.45-.14.15-1.53.77-.27.15-1.25.84-.91.82-1.11.69-.21.07-1.11.91c-.14.15-.28.15-.42.3a3,3,0,0,1-.35.45l-1,1L376,128l-.76.74-.92,1-.7.82c-.16.17-.32.35-.49.52s-.28.52-.42.67a8.49,8.49,0,0,0-.5.74l-.76.82-.57,1"/></clipPath></defs><title>hope-church-logo-white</title><g class="cls-2"><g class="cls-3"><g class="cls-4"><g class="cls-5"><g class="cls-4"><rect class="cls-6" x="130.45" width="122.41" height="139.5"/></g></g></g></g></g><g class="cls-7"><g class="cls-3"><rect class="cls-6" x="229.51" y="2.95" width="102.77" height="133.6"/></g></g><polygon class="cls-8" points="325.43 119.42 325.43 20.07 387.09 20.07 387.09 40.26 349.24 40.26 349.24 59.65 379.68 59.65 379.68 79.68 349.24 79.68 349.24 99.23 387.09 99.23 387.09 119.42 325.43 119.42"/><g class="cls-9"><g class="cls-3"><rect class="cls-6" x="308.3" y="2.95" width="95.92" height="133.6"/></g></g><g class="cls-10"><g class="cls-3"><rect class="cls-6" x="44.53" y="2.95" width="58.24" height="85.64"/></g></g><g class="cls-11"><g class="cls-3"><rect class="cls-6" x="95.92" y="2.95" width="58.24" height="85.64"/></g></g><g class="cls-12"><g class="cls-3"><rect class="cls-6" x="44.53" y="37.2" width="109.62" height="99.34"/></g></g><g class="cls-13"><g class="cls-3"><rect class="cls-6" y="81.74" width="140.45" height="113.04"/></g></g><g class="cls-14"><g class="cls-3"><rect class="cls-6" x="109.62" y="95.44" width="65.09" height="75.36"/></g></g><g class="cls-15"><g class="cls-3"><rect class="cls-6" x="130.17" y="109.14" width="82.21" height="61.66"/></g></g><g class="cls-16"><g class="cls-3"><rect class="cls-6" x="130.17" y="109.14" width="119.9" height="126.75"/></g></g><g class="cls-17"><g class="cls-3"><rect class="cls-6" x="205.54" y="105.72" width="82.21" height="58.24"/></g></g><g class="cls-18"><g class="cls-3"><rect class="cls-6" x="212.39" y="102.29" width="106.19" height="116.47"/></g></g><g class="cls-19"><g class="cls-3"><rect class="cls-6" x="280.9" y="105.72" width="82.21" height="58.24"/></g></g><g class="cls-20"><g class="cls-3"><rect class="cls-6" x="315.15" y="98.86" width="75.36" height="61.66"/></g></g><g class="cls-21"><g class="cls-3"><rect class="cls-6" x="349.41" y="98.86" width="78.79" height="61.66"/></g></g></svg>